<svg version="1.1" id="svg2" xml:space="preserve" viewBox="29.33333436 256.00000896 612.00002142 153.3333387" xmlns="http://www.w3.org/2000/svg" style="max-height: 500px" width="612.00002142" height="153.3333387"><metadata id="metadata8">image/svg+xml</metadata><defs id="defs6"/><g id="g10" transform="matrix(1.3333333,0,0,-1.3333333,0,666.66667)"><g id="g12" transform="scale(0.1)"><path d="M 5000,0 H 0 V 5000 H 5000 V 0" style="fill:#ffffff;fill-opacity:1;fill-rule:nonzero;stroke:none" id="path14"/><path d="M 5000,0 H 0 v 5000 h 5000 z" style="fill:none;stroke:#231f20;stroke-width:10;stroke-linecap:butt;stroke-linejoin:miter;stroke-miterlimit:10;stroke-dasharray:none;stroke-opacity:1" id="path16"/><g id="g18" transform="scale(10)"><text transform="matrix(1,0,0,-1,183.447,227.714)" style="font-variant:normal;font-weight:bold;font-size:109.77500153px;font-family:HarabaraMaisBold;-inkscape-font-specification:HarabaraMaisBold-HarabaraMaisBold;writing-mode:lr-tb;fill:#194354;fill-opacity:1;fill-rule:nonzero;stroke:none" id="text22"><tspan x="0 86.592384 165.08151 228.97057" y="0" id="tspan20">WAPP</tspan></text>
</g><path d="M 1027.93,2705.97 853.566,2296.48 c -3.281,-3.15 -7.625,7.43 -8.816,9.53 -7.195,12.72 -13.246,28.23 -19.176,41.81 -21.937,50.25 -51.351,114.1 -67.703,165.48 -14.266,44.84 0.43,64 16.055,104.55 41.133,106.7 85.531,213.81 129.711,319.24 22.293,53.21 31.48,90 95.636,94.72 54.917,4.04 98.457,1.78 124.737,-53.55 31.28,-65.86 57.69,-141.87 86.44,-209.92 l 225.16,-533.02 c 5.69,-18.95 -4.37,-38.29 -10.55,-56.09 -17.52,-50.37 -41.04,-108.69 -62.89,-157.25 -3.65,-8.12 -15.97,-38 -23.18,-40.02 -18.97,-5.33 -32.61,49.85 -41.36,62.03 l -269.7,661.98" style="fill:#194354;fill-opacity:1;fill-rule:nonzero;stroke:none" id="path24"/><path d="m 1465.95,2298.69 c -4.95,-1.14 -3.4,0.7 -4.72,2.82 -4.02,6.42 -8.52,17.62 -11.95,25 -25.26,54.27 -51.13,115.17 -72.97,171.03 -7.33,18.74 -20.65,42.2 -14.61,62.14 31.94,77.55 64.79,154.7 96.78,232.24 23.75,57.58 44.94,121.88 70.92,177.55 17.72,37.95 40.27,58.07 82.52,62.08 19.98,1.89 107.41,3.12 122.4,-2.6 13.59,-5.18 14.25,-16.76 11.3,-30.18 -80.36,-195.28 -152.18,-394.38 -231.86,-589.94 -15.11,-37.1 -30.14,-74.29 -47.81,-110.14" style="fill:#194354;fill-opacity:1;fill-rule:nonzero;stroke:none" id="path26"/><path d="m 855.723,2167.75 c 19.636,-46.5 43.601,-116.61 67.683,-157.79 7.59,-12.98 16.344,-25.97 32.258,-24.95 -9.137,-6.69 -25.922,-8.17 -37.121,-8.9 -41.605,-2.71 -109.793,-3.52 -150.789,0.38 -32.719,3.11 -60.281,18.7 -76.117,48.88 -122.375,296.59 -252.032,590.56 -370.625,888.81 -11.606,29.19 -29.035,66.71 -36.66,96.36 -3.563,13.86 -2.071,18.92 13.105,20.36 33.316,3.17 138.871,3.88 168.41,-4.16 15.735,-4.28 28.891,-12.44 38.645,-26.04 122.285,-274.96 234.019,-555.45 351.211,-832.95" style="fill:#194354;fill-opacity:1;fill-rule:nonzero;stroke:none" id="path28"/><path d="m 955.664,1985.01 c -15.914,-1.02 -24.668,11.97 -32.258,24.95 -24.082,41.18 -48.047,111.29 -67.683,157.79 l 174.337,400.69 c 25.74,-78.77 63.72,-152.87 86.97,-232.49 2.04,-11.64 -1.43,-21.09 -5.11,-31.66 -34.8,-99.87 -88.72,-202.37 -128.615,-300.57 -8.282,-8.67 -14.969,-17.9 -27.641,-18.71" style="fill:#21adc2;fill-opacity:1;fill-rule:nonzero;stroke:none" id="path30"/><g id="g32" transform="scale(10)"><text transform="matrix(1,0,0,-0.78897331,187.288,196.687)" style="font-variant:normal;font-weight:bold;font-size:28.74571228px;font-family:HarabaraMaisBold;-inkscape-font-specification:HarabaraMaisBold-HarabaraMaisBold;writing-mode:lr-tb;fill:#194354;fill-opacity:1;fill-rule:nonzero;stroke:none" id="text36"><tspan x="0 17.908579 38.40427 54.300652 71.692635 94.367256 114.92044 132.88651 149.09909 162.58083 174.54759 193.41652 212.67615 228.66383 249.15953 267.12561" y="0" id="tspan34">SOFTWARE FACTORY</tspan></text>
</g></g></g></svg>